HIERARCHY
ROOT Hips
{
	OFFSET	0.00	0.00	0.00
	CHANNELS 6 Xposition Yposition Zposition Zrotation Xrotation Yrotation
	JOINT Spine
	{
		OFFSET	 0.00	0.01	 0.00
		CHANNELS 3 Zrotation Xrotation Yrotation
		JOINT Spine1
		{
			OFFSET	 0.00	 2.45913012437421	 0.00
			CHANNELS 3 Zrotation Xrotation Yrotation
            JOINT Neck
            {
                OFFSET	 0.00	 2.48462964506057	 0.00
                CHANNELS 3 Zrotation Xrotation Yrotation
                JOINT Head
                {
                    OFFSET	 0.00	 0.927524780924562	 0.00
                    CHANNELS 3 Zrotation Xrotation Yrotation
                    End Site 
                    {
                        OFFSET	 0.00	 1.14999962169752	 0.00
                    }
                }
            }
			JOINT LeftShoulder
			{
				OFFSET	 0.00	 2.48462964506057	 0.00
				CHANNELS 3 Zrotation Xrotation Yrotation
				JOINT LeftUpArm
				{
					OFFSET	 0.00	 1.24881979654096	 0.00
					CHANNELS 3 Zrotation Xrotation Yrotation
					JOINT LeftForeArm
					{
						OFFSET	 0.00	2.59758046908119	 0.00
						CHANNELS 3 Zrotation Xrotation Yrotation
						JOINT LeftHand
						{
							OFFSET	 0.00	2.45542024364365	 0.00
							CHANNELS 3 Zrotation Xrotation Yrotation
							JOINT LeftHandThumb 
							{
								OFFSET	 0.00	0.00	 0.00
								CHANNELS 3 Zrotation Xrotation Yrotation
								End Site
								{
									OFFSET	 0.00	0.00	1.00000003353624
								}
							}
							JOINT L_Wrist_End 
							{
								OFFSET	 0.00	0.99999967115358	 0.00
								CHANNELS 3 Zrotation Xrotation Yrotation
								End Site 
								{
									OFFSET	 0.00	 0.00	 0.00
								}
							}
						}
					}
				}
			}
			JOINT RightShoulder
			{
				OFFSET	 0.00	 2.48462964506057	 0.00
				CHANNELS 3 Zrotation Xrotation Yrotation
				JOINT RightUpArm
				{
					OFFSET	 0.00	 1.24881979654096	 0.00
					CHANNELS 3 Zrotation Xrotation Yrotation
					JOINT RightForeArm
					{
						OFFSET	 0.00	2.59758046908119	 0.00
						CHANNELS 3 Zrotation Xrotation Yrotation
						JOINT RightHand
						{
							OFFSET	 0.00	2.45542024364365	 0.00
							CHANNELS 3 Zrotation Xrotation Yrotation
							JOINT RightHandThumb 
							{
								OFFSET	 0.00	0.00	 0.00
								CHANNELS 3 Zrotation Xrotation Yrotation
								End Site
								{
									OFFSET	 0.00	0.00	1.00000003353624
								}
							}
							JOINT R_Wrist_End 
							{
								OFFSET	 0.00	0.99999967115358	 0.00
								CHANNELS 3 Zrotation Xrotation Yrotation
								End Site 
								{
									OFFSET	 0.00	 0.00	 0.00
								}
							}
						}
					}
				}
			}
		}
	}
	JOINT LeftUpLeg
	{
		OFFSET	 1.2719394002717	 0.00	 0.00
		CHANNELS 3 Zrotation Xrotation Yrotation
		JOINT LeftLowLeg
		{
			OFFSET	 0.00	-4.3429100912261	 0.00
			CHANNELS 3 Zrotation Xrotation Yrotation
			JOINT LeftFoot
			{
				OFFSET	 0.00	-4.48767017425826	 0.00
				CHANNELS 3 Zrotation Xrotation Yrotation
				JOINT LeftToeBase
                {
                    OFFSET	 0.00	0.00	 1.51507020887566
                    CHANNELS 3 Zrotation Xrotation Yrotation
                    End Site 
                    {
                        OFFSET	 0.00	0.00	 0.75000010571191
                    }
                }
			}
		}
	}
	JOINT RightUpLeg
	{
		OFFSET	 -1.2719393604653	 0.00	 0.00
		CHANNELS 3 Zrotation Xrotation Yrotation
		JOINT RightLowLeg
		{
			OFFSET	 0.00	-4.3429100912261	 0.00
			CHANNELS 3 Zrotation Xrotation Yrotation
			JOINT RightFoot
			{
				OFFSET	 0.00	-4.48767017425826	 0.00
				CHANNELS 3 Zrotation Xrotation Yrotation
				JOINT RightToeBase
                {
                    OFFSET	 0.00	0.00	 1.51507020887566
                    CHANNELS 3 Zrotation Xrotation Yrotation
                    End Site 
                    {
                        OFFSET	 0.00	0.00	 0.749999965609858
                    }
                }   
			}
		}
	}
}
MOTION 
Frames:	11 
Frame Time: 0.02 
 1.8160899353027344 -3.008089904785156 9.39572998046875 -147.249 80.3668 148.02 3.03638 -7.04559 -0.874272 4.29468 -8.37784 -0.512632 -18.5523 74.0348 11.1937 75.499 -77.0695 420.696 -114.8513 -12.2395 -15.5454 22.9824 12.4507 -24.8616 0.0 4.62494 0.0 23.2297 -9.20636 26.5573 0.0 0.0 0.0 0.0 0.0 0.0 111.4986 -7.62402 -350.123 -18.9874 -2.05582 56.7685 0.0 16.2771 0.0 -34.4919 -15.4517 -54.0457 0.0 0.0 0.0 0.0 0.0 0.0 7.56834 -5.74216 0.0872478 0.0 7.37738 0.0 -18.9289 1.3224001 6.76607 0.0 -29.9825 0.0 6.72902 -5.03274 6.35325 0.0 8.52597 0.0 13.0179 6.2581196 -17.3348 0.0 -30.5856 0.0 
  1.8193099975585938 -3.005260009765625 9.39541015625 -147.536 80.2444 148.359 3.11297 -7.14007 -0.860123 4.23429 -8.42957 -0.508262 -18.5064 74.0133 11.1701 75.2599 -77.0349 420.402 -114.8618 -12.1999 -15.4719 22.9385 12.297 -25.0427 0.0 4.5679 0.0 23.2161 -9.48828 26.4448 0.0 0.0 0.0 0.0 0.0 0.0 111.4986 -7.67687 -350.067 -18.8828 -1.99759 56.7288 0.0 16.3 0.0 -34.4355 -15.4534 -54.0996 0.0 0.0 0.0 0.0 0.0 0.0 7.56026 -5.91671 -0.121405 0.0 7.40694 0.0 -18.9247 1.2544003 6.89962 0.0 -29.937801 0.0 6.72483 -5.17809 6.29429 0.0 8.52436 0.0 13.0419 6.26698 -17.3059 0.0 -30.61 0.0 
  1.821580047607422 -3.002340087890625 9.395250244140625 -147.742 80.1535 148.594 3.15021 -7.1967 -0.849166 4.21894 -8.48824 -0.500476 -18.4929 73.9949 11.1747 75.0211 -77.0112 420.105 -114.8642 -12.1786 -15.5659 22.8041 12.18 -25.0773 0.0 4.54692 0.0 23.1642 -9.6912 26.3012 0.0 0.0 0.0 0.0 0.0 0.0 111.5045 -7.70025 -350.061 -18.8015 -1.95768 56.6522 0.0 16.2669 0.0 -34.2656 -15.5518 -54.0283 0.0 0.0 0.0 0.0 0.0 0.0 7.55773 -6.05031 -0.254792 0.0 7.43183 0.0 -18.9368 1.2107 6.97667 0.0 -29.9338 0.0 6.72595 -5.30339 6.28295 0.0 8.5459 0.0 13.0782 6.26375 -17.3016 0.0 -30.6348 0.0 
  1.8225 -3.002229919433594 9.395579833984375 -147.39 80.3111 148.108 3.11406 -7.05751 -0.772337 4.25791 -8.47251 -0.415465 -18.4169 74.0129 11.0894 74.9247 -76.998 419.978 -114.8696 -12.1329 -15.6023 22.6679 11.9674 -25.0727 0.0 4.59444 0.0 22.9915 -9.80464 26.3587 0.0 0.0 0.0 0.0 0.0 0.0 111.5351 -7.73828 -350.021 -18.7322 -1.8602 56.6514 0.0 16.1879 0.0 -34.0694 -15.5682 -54.0709 0.0 0.0 0.0 0.0 0.0 0.0 7.53417 -5.82104 -0.149277 0.0 7.37656 0.0 -18.9335 1.2362003 6.98356 0.0 -29.9312 0.0 6.70296 -5.15189 6.39064 0.0 8.56379 0.0 13.0613 6.27604 -17.3088 0.0 -30.6392 0.0 
  1.8242300415039063 -3.001789855957031 9.395700073242187 -147.192 80.3948 147.821 3.10964 -6.98097 -0.716169 4.26189 -8.48271 -0.355841 -18.243 74.0506 10.8908 74.8896 -76.9759 419.934 -114.8846 -12.1327 -15.675 22.5137 11.8241 -25.0776 0.0 4.64196 0.0 22.9202 -9.90435 26.4186 0.0 0.0 0.0 0.0 0.0 0.0 111.560104 -7.77869 -349.949 -18.6061 -1.77511 56.6822 0.0 16.1679 0.0 -33.791 -15.6278 -54.0783 0.0 0.0 0.0 0.0 0.0 0.0 7.514 -5.69437 -0.0676849 0.0 7.34288 0.0 -18.9183 1.2447004 6.98961 0.0 -29.935799 0.0 6.68311 -5.06439 6.44971 0.0 8.55528 0.0 13.0633 6.2865496 -17.2956 0.0 -30.681301 0.0 
  1.8263699340820312 -3.0000299072265624 9.39530029296875 -147.366 80.3017 148.039 3.13753 -7.05342 -0.724668 4.24541 -8.56139 -0.365255 -18.1035 74.0883 10.7379 74.7093 -76.944 419.717 -114.863 -12.1286 -15.7861 22.313 11.6927 -25.0501 0.0 4.64485 0.0 22.8402 -9.80583 26.4287 0.0 0.0 0.0 0.0 0.0 0.0 111.5638 -7.78953 -349.98 -18.4722 -1.78406 56.554 0.0 16.1294 0.0 -33.488 -15.7719 -53.7181 0.0 0.0 0.0 0.0 0.0 0.0 7.52194 -5.82929 -0.127509 0.0 7.37741 0.0 -18.9212 1.2076998 6.99711 0.0 -29.925 0.0 6.68941 -5.15405 6.38423 0.0 8.52533 0.0 13.0301 6.31108 -17.2896 0.0 -30.693699 0.0 
  1.8284300231933595 -2.9992999267578124 9.394810180664063 -147.412 80.2939 148.066 3.13646 -7.06027 -0.705394 4.24869 -8.64078 -0.340813 -17.9906 74.1637 10.598 74.5005 -76.9213 419.46 -114.8304 -12.1208 -15.9335 22.0833 11.5826 -24.9678 0.0 4.64404 0.0 22.8157 -9.7778 26.3177 0.0 0.0 0.0 0.0 0.0 0.0 111.5505 -7.77272 -349.974 -18.3363 -1.7546 56.6096 0.0 16.0133 0.0 -33.3939 -15.7103 -53.6534 0.0 0.0 0.0 0.0 0.0 0.0 7.50769 -5.82689 -0.133135 0.0 7.35473 0.0 -18.9051 1.1927996 7.01427 0.0 -29.9418 0.0 6.67648 -5.15381 6.38989 0.0 8.49766 0.0 13.0308 6.3001404 -17.28 0.0 -30.6884 0.0 
  1.8299800109863282 -2.9993600463867187 9.394650268554688 -147.388 80.3191 147.993 3.12092 -7.0429 -0.66352 4.25343 -8.70739 -0.290748 -17.8568 74.2453 10.4398 74.4023 -76.8937 419.291 -114.8268 -12.1232 -15.9653 21.9119 11.4841 -25.11 0.0 4.6488 0.0 22.8119 -9.707 26.431 0.0 0.0 0.0 0.0 0.0 0.0 111.5605 -7.79964 -349.924 -18.1999 -1.72585 56.6045 0.0 15.9618 0.0 -33.2999 -15.683 -53.7079 0.0 0.0 0.0 0.0 0.0 0.0 7.49446 -5.77054 -0.066749 0.0 7.31694 0.0 -18.8975 1.2040997 6.99419 0.0 -29.9402 0.0 6.6636 -5.11924 6.45029 0.0 8.47789 0.0 13.0303 6.29677 -17.3045 0.0 -30.6717 0.0 
  1.8321000671386718 -2.998590087890625 9.394359741210938 -147.458 80.3131 148.067 3.11361 -7.05425 -0.650976 4.24743 -8.7763 -0.272437 -17.8348 74.284 10.4089 74.2574 -76.8855 419.052 -114.822205 -12.1151 -15.9673 21.7661 11.3526 -25.1072 0.0 4.65513 0.0 22.7274 -9.70926 26.4677 0.0 0.0 0.0 0.0 0.0 0.0 111.5404 -7.79943 -349.888 -18.0293 -1.75937 56.4389 0.0 15.9911 0.0 -33.3213 -15.8368 -53.6632 0.0 0.0 0.0 0.0 0.0 0.0 7.47352 -5.77011 -0.108331 0.0 7.28321 0.0 -18.8783 1.2024002 7.02562 0.0 -29.9472 0.0 6.63951 -5.12018 6.3805 0.0 8.44635 0.0 13.0136 6.31159 -17.2611 0.0 -30.7112 0.0 
  1.8337699890136718 -2.998710021972656 9.394119873046876 -147.532 80.2921 148.151 3.0992 -7.10168 -0.644264 4.24725 -8.83365 -0.259397 -17.7644 74.3333 10.3209 74.127 -76.8735 418.85 -114.8384 -12.1048 -16.0191 21.66 11.2652 -25.1449 0.0 4.66663 0.0 22.6202 -9.77262 26.5217 0.0 0.0 0.0 0.0 0.0 0.0 111.555 -7.79089 -349.984 -17.9265 -1.76482 56.8167 0.0 15.877 0.0 -33.3432 -15.6468 -53.9101 0.0 0.0 0.0 0.0 0.0 0.0 7.46666 -5.78807 -0.0964826 0.0 7.268 0.0 -18.889 1.2103004 6.99129 0.0 -29.9743 0.0 6.63022 -5.14169 6.38377 0.0 8.44302 0.0 13.0156 6.30297 -17.2705 0.0 -30.6989 0.0 
  1.8356300354003907 -2.9986801147460938 9.393939819335937 -147.527 80.2852 148.161 3.09827 -7.12836 -0.63617 4.2329 -8.89525 -0.247087 -17.5612 74.4034 10.0649 74.0823 -76.8698 418.786 -114.8395 -12.1066 -16.1189 21.5452 11.2381 -25.0837 0.0 4.6362 0.0 22.5761 -9.79256 26.7114 0.0 0.0 0.0 0.0 0.0 0.0 111.5227 -7.75257 -349.914 -17.7964 -1.80371 56.764 0.0 15.781 0.0 -33.4537 -15.5824 -53.8397 0.0 0.0 0.0 0.0 0.0 0.0 7.45761 -5.79112 -0.108108 0.0 7.25568 0.0 -18.8636 1.2055998 6.99946 0.0 -29.960499 0.0 6.62292 -5.14355 6.37843 0.0 8.43718 0.0 13.022 6.2982903 -17.2838 0.0 -30.720299 0.0 
